<?xml version="1.0" encoding="UTF-8"?>
<svg id="Layer_1" data-name="Layer 1" xmlns="http://www.w3.org/2000/svg" viewBox="0 0 288 288">
  <defs>
    <style>
      .cls-1 {
        fill: #2262e4;
      }

      .cls-2 {
        fill: #041625;
      }

      .cls-3 {
        fill: #031625;
      }

      .cls-4 {
        fill: #041626;
      }

      .cls-5 {
        fill: #041726;
      }
    </style>
  </defs>
  <path class="cls-5" d="M243.37,109.81c0-1.3-.44-2.39-.88-3.53-.99-2.58-3.14-4.46-5.74-5.28-1.01-.32-1.87-.56-3-.56h-52c-2.85,0-6.25,1.55-7.88,4-.96,1.45-2.02,3.31-2.02,5.22l-.02,37.11c0,5.34,4.41,10.2,10.01,9.98.34-.01.57.25.57.59l.03,8.24c0,1.12.83,2.05,1.6,2.52.96.6,2.01.66,3.05.3.83-.28,1.42-.75,2.15-1.38l11.95-10.22,32.42-.06c2.94,0,5.61-1.33,7.41-3.51,1.67-2.03,2.38-4.46,2.37-7.11l-.02-36.3ZM232.47,150.77h-32.25c-.84,0-1.57.12-2.25.72l-9.44,8.38v-6.28c-.01-1.58-1.18-2.82-2.78-2.82l-3.45-.03c-2.42-.02-4.26-2.1-4.26-4.53l.02-35.31c0-2.24,1.8-4.4,4.15-4.41l50.67-.03c2.23,0,4.14,1.88,4.15,4.16l.03,35.64c0,2.59-2.08,4.5-4.59,4.5Z"/>
  <path class="cls-3" d="M226.14,119.04h-37.11c-1.72.01-2.88,1.55-2.85,2.99.04,1.63,1.25,2.92,3,2.92l37.21-.04c1.74,0,2.76-1.81,2.65-3.17-.11-1.42-1.31-2.7-2.91-2.7Z"/>
  <path class="cls-2" d="M210.9,133.12h-21.56c-1.67,0-2.9,1-3.11,2.59-.17,1.26.66,3.13,2.31,3.14l22.77.03c1.7,0,2.71-1.84,2.56-3.18-.17-1.5-1.39-2.58-2.98-2.58Z"/>
  <path class="cls-4" d="M218.37,163.64l-6.61.06c-1.61,6.16-3.71,11.97-6.59,17.58-1.72,3.36-3.63,6.42-5.74,9.53-3.12,4.6-6.65,8.69-10.67,12.54-3.61,3.44-7.34,6.55-11.56,9.21-3.01,1.9-5.91,3.65-9.12,5.17l-7.67,3.25v-38.75s15.33-14.56,15.33-14.56c.84-.79,1.16-1.82,1-2.88-.13-.85-.68-1.79-1.62-2.21-1.09-.48-2.43-.25-3.35.61l-11.35,10.6-.03-49.01c-.28-1.71-.8-3.38-2.07-4.65l-26.25-26.25c-1.16-1.16-2.94-2.06-4.6-2.06l-42.14-.04c-6.32,0-11.25,4.59-11.97,10.87v96.35c.13.31-.13.41-.24.31-.04-.22-.13-.27-.22-.37-6.15-6.99-10.84-14.18-14.55-22.76-2.3-5.32-3.93-10.67-5.08-16.36-1.78-8.83-2.16-17.7-.94-26.66,3.21-23.53,15.98-44.92,35.99-57.81,6.48-4.18,13.45-7.47,20.83-9.69,16.37-4.92,33.87-4.7,50.07.73,6.57,2.2,12.74,5.27,18.56,9.02,6.11,3.94,11.52,8.74,16.39,14.08l3.87,4.5,8.8-.04c-5.44-8.28-12.12-15.38-19.89-21.21-9.4-7.03-20.01-12.19-31.43-15-13.99-3.44-28.6-3.62-42.68-.56-16.84,3.66-32.27,12.36-44.1,24.85-5.25,5.54-9.62,11.73-13.22,18.45-4.02,7.5-7.07,15.42-8.85,23.76-2.94,13.74-2.73,27.94.64,41.56,1.85,7.46,4.65,14.5,8.28,21.26,11.09,20.67,30.93,36.37,53.52,42.71,12.68,3.56,26.04,4.18,39.01,1.92,23.45-4.09,44.41-17.72,57.71-37.4,6.2-9.18,10.61-19.31,13.04-30.09.08-.35-.24-.54-.5-.54ZM130.25,100.73l20.2,20.14h-14.12c-1.49,0-2.86-.71-3.86-1.59-1.38-1.22-1.93-2.85-2.22-4.66v-13.88ZM154.23,179.81l-11.9,11.24-12.72.05c-.98-3.17-2.86-5.73-5.51-7.66-5.01-3.55-11.81-3.36-16.59.47-5.6,4.38-6.99,12.23-3.33,18.22,3.66,5.98,11.18,8.35,17.74,5.38,2.83-1.28,4.93-3.23,6.33-5.92.76-1.46,1.39-2.94,1.56-4.62l14.05-.06c1.08,0,1.95-.85,2.66-1.53l3.89-3.75,3.81-3.47v34.84c-12.31,3.54-25.11,3.91-37.6,1.21-6.45-1.4-12.57-3.45-18.48-6.37-3.61-1.71-6.89-3.66-10.25-5.83-2.93-1.89-5.59-4.09-8.29-6.34l.04-101.82c0-3.64,3.16-6.3,6.64-6.11h37.79s.08,17.71.08,17.71c.02,3.95,2.32,7.4,5.44,9.57,2.3,1.44,4.76,2.01,7.48,2.01h17.15s0,52.8,0,52.8ZM124.17,194.89c0,4.46-3.61,8.07-8.07,8.07s-8.07-3.61-8.07-8.07,3.61-8.07,8.07-8.07,8.07,3.61,8.07,8.07Z"/>
  <circle class="cls-1" cx="116.1" cy="194.89" r="8.07" transform="translate(-110.72 191.2) rotate(-58.28)"/>
  <path class="cls-4" d="M137.37,156.33l-41.16.02c-1.78,0-2.87,1.63-2.75,3.14.12,1.56,1.35,2.7,3.08,2.7h40.91c1.88-.01,2.97-1.46,2.95-3-.03-1.64-1.25-2.87-3.03-2.87Z"/>
  <path class="cls-4" d="M93.44,141.98c.03,1.45,1.1,2.84,2.77,2.84l41.66.02c1.68-.46,2.62-1.62,2.5-3.18-.1-1.36-1.25-2.63-2.85-2.62l-41.4.04c-1.66,0-2.71,1.58-2.68,2.9Z"/>
</svg>