<?xml version="1.0" encoding="UTF-8"?>
<svg id="Layer_1" data-name="Layer 1" xmlns="http://www.w3.org/2000/svg" viewBox="0 0 375.6 288">
  <defs>
    <style>
      .cls-1 {
        font-family: KorolevRounded-Medium, 'Korolev Rounded';
        font-size: 46.32px;
        font-weight: 500;
      }

      .cls-2 {
        fill: #2262e4;
      }

      .cls-3 {
        fill: #041625;
      }

      .cls-4 {
        fill: #031625;
      }

      .cls-5 {
        letter-spacing: -.06em;
      }

      .cls-6 {
        letter-spacing: -.02em;
      }

      .cls-7 {
        letter-spacing: -.02em;
      }

      .cls-8 {
        fill: #041626;
      }

      .cls-9 {
        letter-spacing: -.01em;
      }

      .cls-10 {
        letter-spacing: 0em;
      }

      .cls-11 {
        fill: #041726;
      }
    </style>
  </defs>
  <g>
    <path class="cls-11" d="M139.74,132.08c0-.45-.15-.83-.31-1.23-.34-.9-1.09-1.55-2-1.84-.35-.11-.65-.2-1.04-.2h-18.12c-.99,0-2.18.54-2.75,1.4-.34.5-.7,1.15-.7,1.82v12.93c0,1.86,1.53,3.56,3.48,3.48.12,0,.2.09.2.21v2.87c.01.39.3.71.57.88.34.21.7.23,1.06.1.29-.1.49-.26.75-.48l4.17-3.56,11.3-.02c1.02,0,1.96-.46,2.58-1.22.58-.71.83-1.55.83-2.48v-12.65ZM135.94,146.36h-11.24c-.29,0-.55.04-.78.25l-3.29,2.92v-2.19c0-.55-.41-.98-.97-.98h-1.2c-.84-.02-1.48-.74-1.48-1.59v-12.3c0-.78.63-1.54,1.45-1.54h17.66c.78,0,1.44.65,1.44,1.44v12.42c0,.9-.72,1.57-1.59,1.57Z"/>
    <path class="cls-4" d="M133.74,135.3h-12.93c-.6,0-1,.54-.99,1.04.01.57.44,1.02,1.05,1.02h12.97c.6-.01.96-.64.92-1.12-.04-.49-.46-.94-1.01-.94Z"/>
    <path class="cls-3" d="M128.43,140.21h-7.51c-.58,0-1.01.35-1.08.9-.06.44.23,1.09.81,1.09h7.94c.59.01.95-.63.89-1.1-.06-.52-.49-.9-1.04-.9Z"/>
    <path class="cls-8" d="M131.03,150.85l-2.3.02c-.56,2.15-1.29,4.17-2.3,6.13-.6,1.17-1.26,2.24-2,3.32-1.09,1.6-2.32,3.03-3.72,4.37-1.26,1.2-2.56,2.28-4.03,3.21-1.05.66-2.06,1.27-3.18,1.8l-2.67,1.13v-13.5s5.34-5.07,5.34-5.07c.29-.28.4-.63.35-1-.04-.3-.24-.62-.57-.77-.38-.17-.85-.09-1.17.21l-3.96,3.69v-17.08c-.11-.6-.29-1.18-.73-1.62l-9.15-9.15c-.41-.41-1.03-.72-1.6-.72h-14.69c-2.2-.02-3.92,1.58-4.17,3.77v33.58c.05.11-.05.14-.08.11-.01-.08-.05-.1-.08-.13-2.14-2.44-3.78-4.94-5.07-7.93-.8-1.85-1.37-3.72-1.77-5.7-.62-3.08-.75-6.17-.33-9.29,1.12-8.2,5.57-15.65,12.54-20.15,2.26-1.46,4.69-2.6,7.26-3.38,5.7-1.71,11.8-1.64,17.45.25,2.29.77,4.44,1.84,6.47,3.14,2.13,1.37,4.01,3.04,5.71,4.91l1.35,1.57,3.07-.02c-1.89-2.88-4.22-5.36-6.93-7.39-3.28-2.45-6.97-4.25-10.95-5.23-4.87-1.2-9.97-1.26-14.87-.19-5.87,1.27-11.25,4.31-15.37,8.66-1.83,1.93-3.35,4.09-4.61,6.43-1.4,2.61-2.46,5.37-3.09,8.28-1.03,4.79-.95,9.74.22,14.48.64,2.6,1.62,5.05,2.88,7.41,3.87,7.2,10.78,12.67,18.65,14.89,4.42,1.24,9.07,1.46,13.59.67,8.17-1.42,15.47-6.17,20.11-13.03,2.16-3.2,3.7-6.73,4.55-10.49.03-.12-.08-.19-.17-.19ZM100.32,128.92l7.04,7.02h-4.92c-.52,0-1-.25-1.35-.55-.48-.42-.67-.99-.77-1.63v-4.84ZM108.68,156.48l-4.15,3.92-4.43.02c-.34-1.1-1-2-1.92-2.67-1.75-1.24-4.11-1.17-5.78.16-1.95,1.53-2.44,4.26-1.16,6.35,1.28,2.09,3.9,2.91,6.18,1.87.99-.45,1.72-1.13,2.21-2.06.27-.51.49-1.02.55-1.61l4.9-.02c.37,0,.68-.3.93-.53l1.36-1.31,1.33-1.21v12.14c-4.29,1.23-8.75,1.36-13.1.42-2.25-.49-4.38-1.2-6.44-2.22-1.26-.6-2.4-1.28-3.57-2.03-1.02-.66-1.95-1.42-2.89-2.21v-35.49c.01-1.27,1.11-2.19,2.33-2.13h13.17s.03,6.17.03,6.17c0,1.38.81,2.58,1.9,3.33.8.5,1.66.7,2.61.7h5.98s0,18.4,0,18.4ZM98.2,161.74c0,1.55-1.26,2.81-2.81,2.81s-2.81-1.26-2.81-2.81,1.26-2.81,2.81-2.81,2.81,1.26,2.81,2.81Z"/>
    <circle class="cls-2" cx="95.39" cy="161.74" r="2.81"/>
    <path class="cls-8" d="M102.8,148.3h-14.34c-.62,0-1,.57-.96,1.1.04.54.47.94,1.07.94h14.26c.65,0,1.04-.51,1.03-1.04,0-.57-.43-1-1.05-1Z"/>
    <path class="cls-8" d="M87.49,143.3c.01.51.39.99.97.99h14.52c.59-.16.91-.56.87-1.1-.04-.47-.44-.92-.99-.91l-14.43.02c-.58,0-.95.55-.94,1.01Z"/>
  </g>
  <text class="cls-1" transform="translate(155.14 162.19)"><tspan class="cls-5" x="0" y="0">Y</tspan><tspan class="cls-6" x="23.46" y="0">a</tspan><tspan class="cls-7" x="47.59" y="0">H</tspan><tspan class="cls-9" x="74.9" y="0">e</tspan><tspan class="cls-10" x="98.33" y="0">r</tspan><tspan x="114.3" y="0">d</tspan></text>
</svg>